<svg width="24" height="19" viewBox="0 0 24 19" fill="none" xmlns="http://www.w3.org/2000/svg">
<path fill-rule="evenodd" clip-rule="evenodd" d="M0 2.375C0 1.06332 1.07452 0 2.4 0H21.6C22.9255 0 24 1.06332 24 2.375V4.75C24 6.06168 22.9255 7.125 21.6 7.125V16.625C21.6 17.9367 20.5255 19 19.2 19H4.8C3.47452 19 2.4 17.9367 2.4 16.625V7.125C1.07452 7.125 0 6.06168 0 4.75V2.375ZM4.8 7.125H19.2L19.2 16.625H4.8V7.125ZM21.6 4.75H19.2H4.8H2.4V2.375H21.6V4.75ZM9.6 10.6875C8.93726 10.6875 8.4 11.2192 8.4 11.875C8.4 12.5308 8.93726 13.0625 9.6 13.0625H15C15.6627 13.0625 16.2 12.5308 16.2 11.875C16.2 11.2192 15.6627 10.6875 15 10.6875H9.6Z" fill="#1E1E1E"/>
</svg>
