<svg width="20" height="20" viewBox="0 0 20 20" fill="none" xmlns="http://www.w3.org/2000/svg">
<path fill-rule="evenodd" clip-rule="evenodd" d="M2 10C2 5.58172 5.58172 2 10 2C14.4183 2 18 5.58172 18 10C18 14.4183 14.4183 18 10 18C5.58172 18 2 14.4183 2 10ZM10 0C4.47715 0 0 4.47715 0 10C0 15.5228 4.47715 20 10 20C15.5228 20 20 15.5228 20 10C20 4.47715 15.5228 0 10 0ZM13.5356 13.5355C13.145 13.9261 12.5119 13.9261 12.1213 13.5355L10 11.4142L7.8787 13.5355C7.48818 13.9261 6.85501 13.9261 6.46449 13.5355C6.07396 13.145 6.07396 12.5118 6.46449 12.1213L8.58581 10L6.46449 7.87868C6.07396 7.48815 6.07396 6.85499 6.46449 6.46447C6.85501 6.07394 7.48818 6.07394 7.8787 6.46447L10 8.58579L12.1213 6.46447C12.5119 6.07394 13.145 6.07394 13.5356 6.46447C13.9261 6.85499 13.9261 7.48815 13.5356 7.87868L11.4142 10L13.5356 12.1213C13.9261 12.5118 13.9261 13.145 13.5356 13.5355Z" fill="#FEFEFE"/>
</svg>
