<svg width="20" height="20" viewBox="0 0 20 20" fill="none" xmlns="http://www.w3.org/2000/svg">
<path fill-rule="evenodd" clip-rule="evenodd" d="M6 3C6 2.44772 6.44772 2 7 2C7.55228 2 8 2.44772 8 3C8 3.55228 7.55228 4 7 4C6.44772 4 6 3.55228 6 3ZM4.17071 2H1C0.447715 2 0 2.44772 0 3C0 3.55228 0.447715 4 1 4H4.17071C4.58254 5.16519 5.69378 6 7 6C8.30622 6 9.41746 5.16519 9.82929 4H19C19.5523 4 20 3.55228 20 3C20 2.44772 19.5523 2 19 2H9.82929C9.41746 0.834808 8.30622 0 7 0C5.69378 0 4.58254 0.834808 4.17071 2ZM1 9C0.447715 9 0 9.44772 0 10C0 10.5523 0.447715 11 1 11H12.1707C12.5825 12.1652 13.6938 13 15 13C16.3062 13 17.4175 12.1652 17.8293 11H19C19.5523 11 20 10.5523 20 10C20 9.44772 19.5523 9 19 9H17.8293C17.4175 7.83481 16.3062 7 15 7C13.6938 7 12.5825 7.83481 12.1707 9H1ZM15 9C15.5523 9 16 9.44771 16 10C16 10.5523 15.5523 11 15 11C14.4477 11 14 10.5523 14 10C14 9.44771 14.4477 9 15 9ZM1 16C0.447715 16 0 16.4477 0 17C0 17.5523 0.447715 18 1 18H2.17071C2.58254 19.1652 3.69378 20 5 20C6.30622 20 7.41746 19.1652 7.82929 18H19C19.5523 18 20 17.5523 20 17C20 16.4477 19.5523 16 19 16H7.82929C7.41746 14.8348 6.30622 14 5 14C3.69378 14 2.58254 14.8348 2.17071 16H1ZM6 17C6 16.4477 5.55228 16 5 16C4.44772 16 4 16.4477 4 17C4 17.5523 4.44772 18 5 18C5.55228 18 6 17.5523 6 17Z" fill="#0D409B"/>
</svg>
