<svg width="20" height="20" viewBox="0 0 20 20" fill="none" xmlns="http://www.w3.org/2000/svg">
<path fill-rule="evenodd" clip-rule="evenodd" d="M5.0947 0C5.79472 0 6.36221 0.558714 6.36221 1.24792C6.36221 1.93713 5.79472 2.49584 5.0947 2.49584H2.53502L2.53502 17.5042H5.0947C5.79472 17.5042 6.36221 18.0629 6.36221 18.7521C6.36221 19.4413 5.79472 20 5.0947 20H2.53502C1.13497 20 0 18.8826 0 17.5042V2.49584C0 1.11743 1.13496 0 2.53502 0H5.0947ZM13.2912 14.0627L16.1975 11.2014H6.2483C5.54828 11.2014 4.98079 10.6426 4.98079 9.95344C4.98079 9.26423 5.54828 8.70552 6.2483 8.70552H16.1975L13.2912 5.84417C12.7962 5.35682 12.7962 4.56668 13.2912 4.07934C13.7862 3.59199 14.5887 3.59199 15.0837 4.07934L19.2575 8.18861C20.2475 9.1633 20.2475 10.7436 19.2575 11.7183L15.0837 15.8275C14.5887 16.3149 13.7862 16.3149 13.2912 15.8275C12.7962 15.3402 12.7962 14.5501 13.2912 14.0627Z" fill="#1E1E1E"/>
</svg>
