<svg width="17" height="25" viewBox="0 0 17 25" fill="none" xmlns="http://www.w3.org/2000/svg">
<path fill-rule="evenodd" clip-rule="evenodd" d="M8.5 14.9C12.5238 14.9 15.7857 11.6765 15.7857 7.7C15.7857 3.72355 12.5238 0.5 8.5 0.5C4.47621 0.5 1.21429 3.72355 1.21429 7.7C1.21429 11.6765 4.47621 14.9 8.5 14.9ZM13.3571 7.7C13.3571 10.351 11.1825 12.5 8.5 12.5C5.81747 12.5 3.64286 10.351 3.64286 7.7C3.64286 5.04903 5.81747 2.9 8.5 2.9C11.1825 2.9 13.3571 5.04903 13.3571 7.7ZM2.42857 20.3C2.42857 20.2966 2.42861 20.2754 2.44891 20.2306C2.47044 20.183 2.51561 20.1078 2.60592 20.0108C2.79163 19.8113 3.12468 19.5667 3.65168 19.3299C4.70357 18.8574 6.34248 18.5 8.50001 18.5C10.6575 18.5 12.2964 18.8574 13.3483 19.3299C13.8753 19.5667 14.2084 19.8113 14.3941 20.0108C14.4844 20.1078 14.5296 20.183 14.5511 20.2306C14.5714 20.2754 14.5714 20.2966 14.5714 20.3L14.5714 22.6438V23.1477V23.2634V23.291V23.2978V23.2995V23.2999V23.3V23.3C14.5714 23.9627 15.1151 24.5 15.7857 24.5C16.4563 24.5 17 23.9627 17 23.3V23.3V23.2999V23.2994V23.2978V23.291V23.2634V23.1477V22.6437V20.3C17 18.798 15.6997 17.7499 14.3534 17.1451C12.901 16.4926 10.8971 16.1 8.50001 16.1C6.10291 16.1 4.09897 16.4926 2.64665 17.1451C1.30033 17.7499 0 18.7979 0 20.3V20.3088V20.3176V20.3264V20.3352V20.3439V20.3527V20.3615V20.3703V20.3791V20.3879V20.3967V20.4055V20.4142V20.423V20.4318V20.4406V20.4494V20.4581V20.4669V20.4757V20.4845V20.4932V20.502V20.5108V20.5196V20.5283V20.5371V20.5458V20.5546V20.5634V20.5721V20.5809V20.5896V20.5984V20.6071V20.6159V20.6246V20.6334V20.6421V20.6508V20.6596V20.6683V20.677V20.6858V20.6945V20.7032V20.7119V20.7206V20.7294V20.7381V20.7468V20.7555V20.7642V20.7729V20.7815V20.7902V20.7989V20.8076V20.8163V20.8249V20.8336V20.8423V20.8509V20.8596V20.8682V20.8769V20.8855V20.8941V20.9028V20.9114V20.92V20.9286V20.9373V20.9459V20.9545V20.9631V20.9717V20.9802V20.9888V20.9974V21.006V21.0145V21.0231V21.0317V21.0402V21.0488V21.0573V21.0658V21.0743V21.0829V21.0914V21.0999V21.1084V21.1169V21.1254V21.1339V21.1423V21.1508V21.1593V21.1677V21.1762V21.1846V21.1931V21.2015V21.2099V21.2183V21.2267V21.2351V21.2435V21.2519V21.2603V21.2687V21.277V21.2854V21.2937V21.3021V21.3104V21.3187V21.3271V21.3354V21.3437V21.352V21.3603V21.3685V21.3768V21.3851V21.3933V21.4016V21.4098V21.418V21.4262V21.4345V21.4427V21.4508V21.459V21.4672V21.4754V21.4835V21.4917V21.4998V21.5079V21.516V21.5242V21.5323V21.5403V21.5484V21.5565V21.5646V21.5726V21.5806V21.5887V21.5967V21.6047V21.6127V21.6207V21.6287V21.6366V21.6446V21.6525V21.6605V21.6684V21.6763V21.6842V21.6921V21.7V21.7079V21.7157V21.7236V21.7314V21.7392V21.747V21.7549V21.7626V21.7704V21.7782V21.7859V21.7937V21.8014V21.8091V21.8169V21.8246V21.8322V21.8399V21.8476V21.8552V21.8629V21.8705V21.8781V21.8857V21.8933V21.9008V21.9084V21.9159V21.9235V21.931V21.9385V21.946V21.9535V21.961V21.9684V21.9758V21.9833V21.9907V21.9981V22.0055V22.0128V22.0202V22.0276V22.0349V22.0422V22.0495V22.0568V22.0641V22.0713V22.0786V22.0858V22.093V22.1002V22.1074V22.1146V22.1218V22.1289V22.136V22.1431V22.1502V22.1573V22.1644V22.1714V22.1785V22.1855V22.1925V22.1995V22.2065V22.2134V22.2204V22.2273V22.2342V22.2411V22.248V22.2549V22.2617V22.2686V22.2754V22.2822V22.289V22.2957V22.3025V22.3092V22.3159V22.3226V22.3293V22.336V22.3426V22.3493V22.3559V22.3625V22.3691V22.3757V22.3822V22.3887V22.3952V22.4017V22.4082V22.4147V22.4211V22.4275V22.434V22.4403V22.4467V22.4531V22.4594V22.4657V22.472V22.4783V22.4846V22.4908V22.497V22.5032V22.5094V22.5156V22.5218V22.5279V22.534V22.5401V22.5462V22.5522V22.5583V22.5643V22.5703V22.5763V22.5822V22.5882V22.5941V22.6V22.6059V22.6117V22.6176V22.6234V22.6292V22.635V22.6407V22.6465V22.6522V22.6579V22.6636V22.6692V22.6749V22.6805V22.6861V22.6917V22.6972V22.7028V22.7083V22.7138V22.7192V22.7247V22.7301V22.7355V22.7409V22.7463V22.7516V22.757V22.7623V22.7675V22.7728V22.778V22.7832V22.7884V22.7936V22.7988V22.8039V22.809V22.8141V22.8191V22.8242V22.8292V22.8342V22.8392V22.8441V22.849V22.8539V22.8588V22.8637V22.8685V22.8733V22.8781V22.8829V22.8876V22.8923V22.897V22.9017V22.9063V22.9109V22.9155V22.9201V22.9247V22.9292V22.9337V22.9382V22.9426V22.9471V22.9515V22.9559V22.9602V22.9646V22.9689V22.9732V22.9774V22.9817V22.9859V22.99V22.9942V22.9983V23.0025V23.0065V23.0106V23.0146V23.0187V23.0226V23.0266V23.0305V23.0344V23.0383V23.0422V23.046V23.0498V23.0536V23.0574V23.0611V23.0648V23.0685V23.0721V23.0757V23.0793V23.0829V23.0865V23.09V23.0935V23.0969V23.1004V23.1038V23.1072V23.1105V23.1139V23.1172V23.1204V23.1237V23.1269V23.1301V23.1333V23.1364V23.1395V23.1426V23.1457V23.1487V23.1517V23.1547V23.1576V23.1605V23.1634V23.1663V23.1691V23.1719V23.1747V23.1774V23.1801V23.1828V23.1855V23.1881V23.1907V23.1933V23.1959V23.1984V23.2009V23.2033V23.2058V23.2082V23.2105V23.2129V23.2152V23.2175V23.2197V23.2219V23.2241V23.2263V23.2284V23.2305V23.2326V23.2347V23.2367V23.2387V23.2406V23.2425V23.2444V23.2463V23.2481V23.2499V23.2517V23.2534V23.2552V23.2568V23.2585V23.2601V23.2617V23.2632V23.2648V23.2663V23.2677V23.2691V23.2705V23.2719V23.2732V23.2746V23.2758V23.2771V23.2783V23.2795V23.2806V23.2817V23.2828V23.2838V23.2849V23.2858V23.2868V23.2877V23.2886V23.2894V23.2903V23.2911V23.2918V23.2925V23.2932V23.2939V23.2945V23.2951V23.2957V23.2962V23.2967V23.2971V23.2975V23.2979V23.2983V23.2986V23.2989V23.2992V23.2994V23.2996V23.2997V23.2998V23.2999V23.3C0 23.9627 0.543654 24.5 1.21429 24.5C1.88492 24.5 2.42857 23.9627 2.42857 23.3V23.2999V23.2998V23.2997V23.2996V23.2994V23.2992V23.2989V23.2986V23.2983V23.2979V23.2975V23.2971V23.2967V23.2962V23.2957V23.2951V23.2945V23.2939V23.2932V23.2925V23.2918V23.2911V23.2903V23.2894V23.2886V23.2877V23.2868V23.2858V23.2849V23.2838V23.2828V23.2817V23.2806V23.2795V23.2783V23.2771V23.2758V23.2746V23.2732V23.2719V23.2705V23.2691V23.2677V23.2663V23.2648V23.2632V23.2617V23.2601V23.2585V23.2568V23.2552V23.2534V23.2517V23.2499V23.2481V23.2463V23.2444V23.2425V23.2406V23.2387V23.2367V23.2347V23.2326V23.2305V23.2284V23.2263V23.2241V23.2219V23.2197V23.2175V23.2152V23.2129V23.2105V23.2082V23.2058V23.2033V23.2009V23.1984V23.1959V23.1933V23.1907V23.1881V23.1855V23.1828V23.1801V23.1774V23.1747V23.1719V23.1691V23.1663V23.1634V23.1605V23.1576V23.1547V23.1517V23.1487V23.1457V23.1426V23.1395V23.1364V23.1333V23.1301V23.1269V23.1237V23.1204V23.1172V23.1139V23.1105V23.1072V23.1038V23.1004V23.0969V23.0935V23.09V23.0865V23.0829V23.0793V23.0757V23.0721V23.0685V23.0648V23.0611V23.0574V23.0536V23.0498V23.046V23.0422V23.0383V23.0344V23.0305V23.0266V23.0226V23.0187V23.0146V23.0106V23.0065V23.0025V22.9983V22.9942V22.99V22.9859V22.9817V22.9774V22.9732V22.9689V22.9646V22.9602V22.9559V22.9515V22.9471V22.9426V22.9382V22.9337V22.9292V22.9247V22.9201V22.9155V22.9109V22.9063V22.9017V22.897V22.8923V22.8876V22.8829V22.8781V22.8733V22.8685V22.8637V22.8588V22.8539V22.849V22.8441V22.8392V22.8342V22.8292V22.8242V22.8191V22.8141V22.809V22.8039V22.7988V22.7936V22.7884V22.7832V22.778V22.7728V22.7675V22.7623V22.757V22.7516V22.7463V22.7409V22.7355V22.7301V22.7247V22.7192V22.7138V22.7083V22.7028V22.6972V22.6917V22.6861V22.6805V22.6749V22.6692V22.6636V22.6579V22.6522V22.6465V22.6407V22.635V22.6292V22.6234V22.6176V22.6117V22.6059V22.6V22.5941V22.5882V22.5822V22.5763V22.5703V22.5643V22.5583V22.5522V22.5462V22.5401V22.534V22.5279V22.5218V22.5156V22.5094V22.5032V22.497V22.4908V22.4846V22.4783V22.472V22.4657V22.4594V22.4531V22.4467V22.4403V22.434V22.4275V22.4211V22.4147V22.4082V22.4017V22.3952V22.3887V22.3822V22.3757V22.3691V22.3625V22.3559V22.3493V22.3426V22.336V22.3293V22.3226V22.3159V22.3092V22.3025V22.2957V22.289V22.2822V22.2754V22.2686V22.2617V22.2549V22.248V22.2411V22.2342V22.2273V22.2204V22.2134V22.2065V22.1995V22.1925V22.1855V22.1785V22.1714V22.1644V22.1573V22.1502V22.1431V22.136V22.1289V22.1218V22.1146V22.1074V22.1002V22.093V22.0858V22.0786V22.0713V22.0641V22.0568V22.0495V22.0422V22.0349V22.0276V22.0202V22.0128V22.0055V21.9981V21.9907V21.9833V21.9758V21.9684V21.961V21.9535V21.946V21.9385V21.931V21.9235V21.9159V21.9084V21.9008V21.8933V21.8857V21.8781V21.8705V21.8629V21.8552V21.8476V21.8399V21.8322V21.8246V21.8169V21.8091V21.8014V21.7937V21.7859V21.7782V21.7704V21.7626V21.7549V21.747V21.7392V21.7314V21.7236V21.7157V21.7079V21.7V21.6921V21.6842V21.6763V21.6684V21.6605V21.6525V21.6446V21.6366V21.6287V21.6207V21.6127V21.6047V21.5967V21.5887V21.5806V21.5726V21.5646V21.5565V21.5484V21.5403V21.5323V21.5242V21.516V21.5079V21.4998V21.4917V21.4835V21.4754V21.4672V21.459V21.4508V21.4427V21.4345V21.4262V21.418V21.4098V21.4016V21.3933V21.3851V21.3768V21.3685V21.3603V21.352V21.3437V21.3354V21.3271V21.3187V21.3104V21.3021V21.2937V21.2854V21.277V21.2687V21.2603V21.2519V21.2435V21.2351V21.2267V21.2183V21.2099V21.2015V21.1931V21.1846V21.1762V21.1677V21.1593V21.1508V21.1423V21.1339V21.1254V21.1169V21.1084V21.0999V21.0914V21.0829V21.0743V21.0658V21.0573V21.0488V21.0402V21.0317V21.0231V21.0145V21.006V20.9974V20.9888V20.9802V20.9717V20.9631V20.9545V20.9459V20.9373V20.9286V20.92V20.9114V20.9028V20.8941V20.8855V20.8769V20.8682V20.8596V20.8509V20.8423V20.8336V20.8249V20.8163V20.8076V20.7989V20.7902V20.7815V20.7729V20.7642V20.7555V20.7468V20.7381V20.7294V20.7206V20.7119V20.7032V20.6945V20.6858V20.677V20.6683V20.6596V20.6508V20.6421V20.6334V20.6246V20.6159V20.6071V20.5984V20.5896V20.5809V20.5721V20.5634V20.5546V20.5458V20.5371V20.5283V20.5196V20.5108V20.502V20.4932V20.4845V20.4757V20.4669V20.4581V20.4494V20.4406V20.4318V20.423V20.4142V20.4055V20.3967V20.3879V20.3791V20.3703V20.3615V20.3527V20.3439V20.3352V20.3264V20.3176V20.3088V20.3Z" fill="#1E1E1E"/>
</svg>
