<svg width="18" height="21" viewBox="0 0 18 21" fill="none" xmlns="http://www.w3.org/2000/svg">
<path fill-rule="evenodd" clip-rule="evenodd" d="M15.9643 13.9998H2.03685C2.2867 12.3652 2.87939 9.28463 4.0623 6.62333C5.29953 3.83982 6.95319 1.99998 9.10459 1.99998C11.2512 1.99998 12.8705 3.83503 14.0622 6.6232C15.2014 9.28851 15.7426 12.3721 15.9643 13.9998ZM9.10459 0C5.60959 0 3.47206 2.97063 2.20544 5.82024C0.898916 8.75965 0.275051 12.0922 0.0225071 13.7642C-0.161942 14.9854 0.813185 15.9998 1.99893 15.9998H15.9991C17.1691 15.9998 18.1453 15.0091 17.9821 13.7952C17.7584 12.1305 17.19 8.79303 15.9305 5.84622C14.7098 2.99013 12.613 0 9.10459 0ZM4.11681 18.609C4.3357 18.1008 4.9311 17.864 5.44628 18.0797L5.44942 18.081L5.46579 18.0877C5.48099 18.0939 5.50461 18.1035 5.5359 18.116C5.59851 18.141 5.69162 18.1775 5.80923 18.2217C6.04507 18.3102 6.3763 18.4283 6.75576 18.5462C7.54154 18.7902 8.43247 19 9.10483 19C9.77719 19 10.6681 18.7902 11.4539 18.5462C11.8334 18.4283 12.1646 18.3102 12.4004 18.2217C12.518 18.1775 12.6111 18.141 12.6738 18.116C12.705 18.1035 12.7287 18.0939 12.7439 18.0877L12.7602 18.081L12.7636 18.0796C13.2788 17.8638 13.8739 18.1007 14.0928 18.609C14.3118 19.1172 14.0713 19.7045 13.556 19.9205C13.5562 19.9204 13.5563 19.9204 13.1598 19L13.556 19.9205L13.5527 19.9219L13.5456 19.9248L13.5214 19.9348C13.5008 19.9432 13.4715 19.9551 13.4343 19.9699C13.36 19.9996 13.2536 20.0413 13.1215 20.0909C12.8579 20.1898 12.4883 20.3217 12.0627 20.4539C11.2383 20.7099 10.1017 21 9.10483 21C8.10795 21 6.97138 20.7099 6.14697 20.4539C5.72133 20.3217 5.35179 20.1898 5.08814 20.0909C4.956 20.0413 4.84968 19.9996 4.77531 19.9699C4.7381 19.9551 4.70883 19.9432 4.68827 19.9348L4.66403 19.9248L4.65697 19.9219L4.65338 19.9204L5.04983 19C4.65338 19.9204 4.65324 19.9203 4.65338 19.9204C4.13809 19.7044 3.89786 19.1172 4.11681 18.609Z" fill="#1E1E1E"/>
</svg>
