<svg width="21" height="22" viewBox="0 0 21 22" fill="none" xmlns="http://www.w3.org/2000/svg">
<path fill-rule="evenodd" clip-rule="evenodd" d="M16.8 9.95C16.8 14.0093 13.5093 17.3 9.45 17.3C5.39071 17.3 2.1 14.0093 2.1 9.95C2.1 5.89071 5.39071 2.6 9.45 2.6C13.5093 2.6 16.8 5.89071 16.8 9.95ZM15.3486 17.3335C13.7319 18.6267 11.6813 19.4 9.45 19.4C4.23091 19.4 0 15.1691 0 9.95C0 4.73091 4.23091 0.5 9.45 0.5C14.6691 0.5 18.9 4.73091 18.9 9.95C18.9 12.1813 18.1267 14.2319 16.8335 15.8486L20.6925 19.7075C21.1025 20.1176 21.1025 20.7824 20.6925 21.1925C20.2824 21.6025 19.6176 21.6025 19.2075 21.1925L15.3486 17.3335Z" fill="white"/>
</svg>
