<svg width="22" height="23" viewBox="0 0 22 23" fill="none" xmlns="http://www.w3.org/2000/svg">
<path fill-rule="evenodd" clip-rule="evenodd" d="M10.7581 22.2581C16.6997 22.2581 21.5162 17.4415 21.5162 11.5C21.5162 5.55846 16.6997 0.741882 10.7581 0.741882C4.81657 0.741882 0 5.55846 0 11.5C0 17.4415 4.81657 22.2581 10.7581 22.2581ZM19.5162 11.5C19.5162 16.337 15.5951 20.2581 10.7581 20.2581C5.92114 20.2581 2 16.337 2 11.5C2 6.66303 5.92114 2.74188 10.7581 2.74188C15.5951 2.74188 19.5162 6.66303 19.5162 11.5ZM11.7587 6.02617C11.7587 5.47389 11.311 5.02617 10.7587 5.02617C10.2065 5.02617 9.75874 5.47389 9.75874 6.02617V11.0858C9.75874 11.6162 9.96945 12.1249 10.3445 12.5L12.2412 14.3966C12.6317 14.7872 13.2648 14.7872 13.6554 14.3966C14.0459 14.0061 14.0459 13.3729 13.6554 12.9824L11.7587 11.0858V6.02617Z" fill="#1E1E1E"/>
</svg>
